REM DIRINDEX 1\2\3,1\2\4,1\2\5,1\2\6
REM DIRNAME cjc157,folder01,folder02,folder03,folder04,folder05
TITLE ""
FILE "183 183.mp3" MP3
  TRACK 01 AUDIO
    TITLE "0:"
    INDEX 01 00:00:00
  TRACK 02 AUDIO
    TITLE "3:cjc157_6624"
    INDEX 01 00:00:11
  TRACK 03 AUDIO
    TITLE "0:"
    INDEX 01 00:01:48
  TRACK 04 AUDIO
    TITLE "4:cjc157_6625"
    INDEX 01 00:02:22
  TRACK 05 AUDIO
    TITLE "0:"
    INDEX 01 00:04:03
  TRACK 06 AUDIO
    TITLE "5:cjc157_6626"
    INDEX 01 00:04:48
  TRACK 07 AUDIO
    TITLE "0:"
    INDEX 01 00:07:72
  TRACK 08 AUDIO
    TITLE "3:cjc157_6627"
    INDEX 01 00:08:42
  TRACK 09 AUDIO
    TITLE "0:"
    INDEX 01 00:09:45
  TRACK 10 AUDIO
    TITLE "4:cjc157_6628"
    INDEX 01 00:10:12
  TRACK 11 AUDIO
    TITLE "0:"
    INDEX 01 00:11:35
  TRACK 12 AUDIO
    TITLE "5:cjc157_6629"
    INDEX 01 00:12:09
  TRACK 13 AUDIO
    TITLE "0:"
    INDEX 01 00:15:13
  TRACK 14 AUDIO
    TITLE "3:cjc157_6630"
    INDEX 01 00:15:60
  TRACK 15 AUDIO
    TITLE "0:"
    INDEX 01 00:17:39
  TRACK 16 AUDIO
    TITLE "4:cjc157_6631"
    INDEX 01 00:18:11
  TRACK 17 AUDIO
    TITLE "0:"
    INDEX 01 00:19:69
  TRACK 18 AUDIO
    TITLE "5:cjc157_6632"
    INDEX 01 00:20:43
  TRACK 19 AUDIO
    TITLE "0:"
    INDEX 01 00:25:27
  TRACK 20 AUDIO
    TITLE "3:cjc157_6633"
    INDEX 01 00:25:74
  TRACK 21 AUDIO
    TITLE "0:"
    INDEX 01 00:27:06
  TRACK 22 AUDIO
    TITLE "4:cjc157_6634"
    INDEX 01 00:27:53
  TRACK 23 AUDIO
    TITLE "0:"
    INDEX 01 00:29:05
  TRACK 24 AUDIO
    TITLE "5:cjc157_6635"
    INDEX 01 00:29:48
  TRACK 25 AUDIO
    TITLE "0:"
    INDEX 01 00:33:03
  TRACK 26 AUDIO
    TITLE "3:cjc157_6636"
    INDEX 01 00:33:52
  TRACK 27 AUDIO
    TITLE "0:"
    INDEX 01 00:34:71
  TRACK 28 AUDIO
    TITLE "4:cjc157_6637"
    INDEX 01 00:35:35
  TRACK 29 AUDIO
    TITLE "0:"
    INDEX 01 00:36:70
  TRACK 30 AUDIO
    TITLE "5:cjc157_6638"
    INDEX 01 00:37:44
  TRACK 31 AUDIO
    TITLE "0:"
    INDEX 01 00:40:52
  TRACK 32 AUDIO
    TITLE "3:cjc157_6639"
    INDEX 01 00:41:22
  TRACK 33 AUDIO
    TITLE "0:"
    INDEX 01 00:42:35
  TRACK 34 AUDIO
    TITLE "4:cjc157_6640"
    INDEX 01 00:43:05
  TRACK 35 AUDIO
    TITLE "0:"
    INDEX 01 00:44:38
  TRACK 36 AUDIO
    TITLE "5:cjc157_6641"
    INDEX 01 00:45:08
  TRACK 37 AUDIO
    TITLE "0:"
    INDEX 01 00:47:70
  TRACK 38 AUDIO
    TITLE "3:cjc157_6642"
    INDEX 01 00:48:42
  TRACK 39 AUDIO
    TITLE "0:"
    INDEX 01 00:49:69
  TRACK 40 AUDIO
    TITLE "4:cjc157_6643"
    INDEX 01 00:50:37
  TRACK 41 AUDIO
    TITLE "0:"
    INDEX 01 00:51:73
  TRACK 42 AUDIO
    TITLE "5:cjc157_6644"
    INDEX 01 00:52:41
  TRACK 43 AUDIO
    TITLE "0:"
    INDEX 01 00:57:50
  TRACK 44 AUDIO
    TITLE "3:cjc157_6645"
    INDEX 01 00:58:18
  TRACK 45 AUDIO
    TITLE "0:"
    INDEX 01 01:01:01
  TRACK 46 AUDIO
    TITLE "4:cjc157_6646"
    INDEX 01 01:01:52
  TRACK 47 AUDIO
    TITLE "0:"
    INDEX 01 01:03:33
  TRACK 48 AUDIO
    TITLE "5:cjc157_6647"
    INDEX 01 01:04:05
  TRACK 49 AUDIO
    TITLE "0:"
    INDEX 01 01:07:06
  TRACK 50 AUDIO
    TITLE "3:cjc157_6648"
    INDEX 01 01:07:57
  TRACK 51 AUDIO
    TITLE "0:"
    INDEX 01 01:09:03
  TRACK 52 AUDIO
    TITLE "4:cjc157_6649"
    INDEX 01 01:09:46
  TRACK 53 AUDIO
    TITLE "0:"
    INDEX 01 01:10:53
  TRACK 54 AUDIO
    TITLE "5:cjc157_6650"
    INDEX 01 01:11:25
  TRACK 55 AUDIO
    TITLE "0:"
    INDEX 01 01:16:46
  TRACK 56 AUDIO
    TITLE "3:cjc157_6651"
    INDEX 01 01:17:16
  TRACK 57 AUDIO
    TITLE "0:"
    INDEX 01 01:19:03
  TRACK 58 AUDIO
    TITLE "4:cjc157_6652"
    INDEX 01 01:19:46
  TRACK 59 AUDIO
    TITLE "0:"
    INDEX 01 01:21:39
  TRACK 60 AUDIO
    TITLE "5:cjc157_6653"
    INDEX 01 01:22:13
  TRACK 61 AUDIO
    TITLE "0:"
    INDEX 01 01:26:19
